<svg width="94" height="95" viewBox="0 0 94 95" fill="none" xmlns="http://www.w3.org/2000/svg">
<ellipse cx="47" cy="47.5" rx="47" ry="47.5" fill="black"/>
<path d="M93.2999 46.8C92.5999 45.8 76.3999 22 47.9999 22C19.5999 22 3.3999 45.8 2.6999 46.8C1.7999 48.1 1.7999 49.9 2.6999 51.3C3.3999 52.2 19.5999 76 47.9999 76C76.3999 76 92.5999 52.2 93.2999 51.2C94.1999 49.9 94.1999 48.1 93.2999 46.8ZM47.9999 68C28.6999 68 15.4999 54.4 10.9999 49C15.4999 43.5 28.5999 30 47.9999 30C67.2999 30 80.4999 43.6 84.9999 49C80.3999 54.5 67.2999 68 47.9999 68ZM50.2999 32.6C45.8999 32 41.5999 33.1 37.9999 35.8C30.6999 41.3 29.1999 51.7 34.6999 59C37.3999 62.6 41.1999 64.8 45.5999 65.5C46.3999 65.6 47.1999 65.7 47.8999 65.7C51.4999 65.7 54.8999 64.5 57.7999 62.4C65.0999 56.9 66.5999 46.5 61.0999 39.2C58.5999 35.5 54.6999 33.2 50.2999 32.6ZM54.2999 57.5C52.0999 59.2 49.2999 59.9 46.4999 59.5C43.6999 59.1 41.1999 57.6 39.4999 55.4C36.0999 50.7 36.9999 44 41.6999 40.5C43.8999 38.8 46.6999 38.1 49.4999 38.5C52.2999 38.9 54.7999 40.4 56.4999 42.6C59.8999 47.3 58.9999 54 54.2999 57.5ZM53.8999 43C54.6999 43.7 55.0999 44.8 55.0999 45.8C55.0999 46.8 54.6999 47.9 53.8999 48.6C53.1999 49.3 52.0999 49.8 51.0999 49.8C49.9999 49.8 48.9999 49.4 48.2999 48.6C47.4999 47.8 47.0999 46.8 47.0999 45.8C47.0999 44.7 47.4999 43.7 48.2999 43C48.9999 42.2 50.0999 41.8 51.0999 41.8C52.1999 41.9 53.1999 42.3 53.8999 43Z" fill="white"/>
</svg>
